<svg width="445" height="434" viewBox="0 0 445 434" fill="none" xmlns="http://www.w3.org/2000/svg">
<rect width="445" height="434" rx="180" fill="#F4F4F4"/>
<rect x="39" y="36" width="368" height="361" rx="180" fill="white"/>
<path d="M235.5 135.5H282C303.263 135.5 320.5 152.737 320.5 174V220.5H235.5V135.5Z" stroke="black" stroke-width="15"/>
<path d="M210.5 135.5H164C142.737 135.5 125.5 152.737 125.5 174V220.5H210.5V135.5Z" stroke="black" stroke-width="15"/>
<mask id="path-5-inside-1_92_485" fill="white">
<rect x="228" y="234" width="100" height="100" rx="10"/>
</mask>
<rect x="228" y="234" width="100" height="100" rx="10" stroke="black" stroke-width="30" mask="url(#path-5-inside-1_92_485)"/>
<mask id="path-6-inside-2_92_485" fill="white">
<rect x="118" y="234" width="100" height="100" rx="10"/>
</mask>
<rect x="118" y="234" width="100" height="100" rx="10" stroke="black" stroke-width="30" mask="url(#path-6-inside-2_92_485)"/>
<mask id="path-7-inside-3_92_485" fill="white">
<path d="M122 156H174C177.314 156 180 153.314 180 150V98H155C136.775 98 122 112.775 122 131V156Z"/>
</mask>
<path d="M122 156H174C177.314 156 180 153.314 180 150V98H155C136.775 98 122 112.775 122 131V156Z" fill="white" stroke="black" stroke-width="30" mask="url(#path-7-inside-3_92_485)"/>
</svg>
